<svg width="92" height="126" viewBox="0 0 92 126" fill="none" xmlns="http://www.w3.org/2000/svg">
<path fill-rule="evenodd" clip-rule="evenodd" d="M31.4939 7.08247C31.713 6.99417 31.9478 6.94873 32.1849 6.94873H70.7171C70.9542 6.94873 71.1889 6.99417 71.408 7.08247L85.0312 12.5735C85.4736 12.7519 85.8251 13.0939 86.0083 13.5244L91.6512 26.781C91.8344 27.2115 91.8344 27.6952 91.6512 28.1257L86.0083 41.3823C85.8251 41.8128 85.4736 42.1548 85.0312 42.3331L75.435 46.201L85.0312 50.0689C85.4736 50.2473 85.825 50.5893 86.0083 51.0198L91.6512 64.2764C91.8344 64.7069 91.8344 65.1906 91.6512 65.6211L86.0083 78.8777C85.825 79.3082 85.4736 79.6502 85.0312 79.8285L71.408 85.3196C70.9656 85.4979 70.4685 85.4979 70.0261 85.3196L56.4029 79.8285C55.9605 79.6502 55.6091 79.3082 55.4258 78.8777L53.2564 73.7813V83.4475C53.2564 83.4893 53.2549 83.5308 53.252 83.572C53.2549 83.6131 53.2564 83.6546 53.2564 83.6964V102.444C53.2564 102.675 53.2097 102.903 53.119 103.116L47.4761 116.373C47.2929 116.804 46.9414 117.146 46.499 117.324L32.8758 122.815C32.4334 122.993 31.9363 122.993 31.4939 122.815L17.8707 117.324C17.4284 117.146 17.0769 116.804 16.8936 116.373L11.2507 103.116C11.0675 102.686 11.0675 102.202 11.2507 101.772L16.8936 88.5152C17.0769 88.0847 17.4284 87.7426 17.8707 87.5643L27.7757 83.572L17.8707 79.5796C17.4284 79.4013 17.0769 79.0592 16.8936 78.6287L11.2507 65.3721C11.0675 64.9416 11.0675 64.4579 11.2507 64.0274L16.8936 50.7708C17.0769 50.3403 17.4284 49.9983 17.8707 49.82L27.1581 46.0766L17.8707 42.3331C17.4284 42.1548 17.0769 41.8128 16.8936 41.3823L11.2507 28.1257C11.0675 27.6952 11.0675 27.2115 11.2507 26.781L16.8936 13.5244C17.0769 13.0939 17.4284 12.7519 17.8707 12.5735L31.4939 7.08247ZM31.9602 47.9443L21.749 52.0601L49.6455 79.2059V47.9579H32.1849C32.1096 47.9579 32.0346 47.9534 31.9602 47.9443ZM53.2564 47.9579V56.1162L55.4258 51.0198C55.6091 50.5893 55.9605 50.2473 56.4029 50.0689L61.6403 47.9579H53.2564ZM70.3579 44.4441H53.2564V12.9472L81.1529 40.093L70.3579 44.4441ZM83.7062 37.6084L88.0289 27.4533L82.9584 15.5414L70.3579 10.4625H55.8098L83.7062 37.6084ZM49.6455 10.4625H32.544L21.749 14.8137L49.6455 41.9595V10.4625ZM46.8363 44.1952H32.1849C32.1096 44.1952 32.0346 44.1998 31.9602 44.2088L19.9435 39.3653L14.873 27.4533L19.1957 17.2983L46.8363 44.1952ZM70.7171 48.1027L60.2812 52.3091L83.7062 75.1038L88.0289 64.9487L82.9584 53.0368L70.7171 48.1027ZM81.1529 77.5884L57.7279 54.7937L53.4052 64.9487L58.4757 76.8607L70.7171 81.7948L81.1529 77.5884ZM47.0921 81.6906L19.1957 54.5447L14.873 64.6998L19.9435 76.6117L32.544 81.6906H47.0921ZM32.544 85.4533H49.6455V102.095L45.174 112.599L21.749 89.8044L32.544 85.4533ZM19.1957 92.2891L14.873 102.444L19.9435 114.356L32.1849 119.29L42.6207 115.084L19.1957 92.2891Z" fill="#F5F5FF"/>
<g filter="url(#filter0_d_307_16)">
<path fill-rule="evenodd" clip-rule="evenodd" d="M25.3807 1.13374C25.5997 1.04544 25.8345 1 26.0716 1H64.6038C64.8409 1 65.0757 1.04544 65.2947 1.13374L78.9179 6.62481C79.3603 6.80313 79.7118 7.14515 79.895 7.57564L85.5379 20.8323C85.7212 21.2628 85.7212 21.7465 85.5379 22.1769L79.895 35.4336C79.7118 35.8641 79.3603 36.2061 78.9179 36.3844L69.3217 40.2523L78.9179 44.1202C79.3603 44.2985 79.7118 44.6405 79.895 45.071L85.5379 58.3277C85.7212 58.7582 85.7212 59.2418 85.5379 59.6723L79.895 72.929C79.7118 73.3595 79.3603 73.7015 78.9179 73.8798L65.2947 79.3709C64.8523 79.5492 64.3552 79.5492 63.9128 79.3709L50.2897 73.8798C49.8473 73.7015 49.4958 73.3595 49.3125 72.929L47.1432 67.8326V77.4987C47.1432 77.5406 47.1417 77.5821 47.1387 77.6232C47.1417 77.6643 47.1432 77.7058 47.1432 77.7477V96.4954C47.1432 96.7261 47.0965 96.9546 47.0057 97.1677L41.3628 110.424C41.1796 110.855 40.8281 111.197 40.3857 111.375L26.7625 116.866C26.3201 117.045 25.823 117.045 25.3807 116.866L11.7575 111.375C11.3151 111.197 10.9636 110.855 10.7803 110.424L5.13743 97.1677C4.95419 96.7372 4.95419 96.2536 5.13743 95.8231L10.7803 82.5664C10.9636 82.1359 11.3151 81.7939 11.7575 81.6156L21.6624 77.6232L11.7575 73.6308C11.3151 73.4525 10.9636 73.1105 10.7803 72.68L5.13743 59.4234C4.95419 58.9929 4.95419 58.5092 5.13743 58.0787L10.7803 44.8221C10.9636 44.3916 11.3151 44.0496 11.7575 43.8713L21.0448 40.1278L11.7575 36.3844C11.3151 36.2061 10.9636 35.8641 10.7803 35.4336L5.13743 22.1769C4.95419 21.7465 4.95419 21.2628 5.13743 20.8323L10.7803 7.57564C10.9636 7.14515 11.3151 6.80313 11.7575 6.62481L25.3807 1.13374ZM25.8469 41.9956L15.6357 46.1114L43.5322 73.2572V42.0092H26.0716C25.9963 42.0092 25.9213 42.0046 25.8469 41.9956ZM47.1432 42.0092V50.1674L49.3125 45.071C49.4958 44.6405 49.8473 44.2985 50.2897 44.1202L55.527 42.0092H47.1432ZM64.2446 38.4954H47.1432V6.99846L75.0396 34.1443L64.2446 38.4954ZM77.593 31.6596L81.9156 21.5046L76.8451 9.59266L64.2446 4.51382H49.6965L77.593 31.6596ZM43.5322 4.51382H26.4307L15.6357 8.86492L43.5322 36.0107V4.51382ZM40.723 38.2464H26.0716C25.9963 38.2464 25.9213 38.251 25.8469 38.2601L13.8303 33.4165L8.75973 21.5046L13.0824 11.3496L40.723 38.2464ZM64.6038 42.154L54.1679 46.3603L77.5929 69.155L81.9156 59L76.8451 47.0881L64.6038 42.154ZM75.0396 71.6397L51.6146 48.845L47.2919 59L52.3624 70.9119L64.6038 75.846L75.0396 71.6397ZM40.9788 75.7418L13.0824 48.596L8.75974 58.751L13.8303 70.663L26.4307 75.7418H40.9788ZM26.4307 79.5046H43.5322V96.1459L39.0608 106.65L15.6357 83.8557L26.4307 79.5046ZM13.0824 86.3404L8.75974 96.4954L13.8303 108.407L26.0716 113.341L36.5074 109.135L13.0824 86.3404Z" fill="#3928A6"/>
<path fill-rule="evenodd" clip-rule="evenodd" d="M25.3807 1.13374C25.5997 1.04544 25.8345 1 26.0716 1H64.6038C64.8409 1 65.0757 1.04544 65.2947 1.13374L78.9179 6.62481C79.3603 6.80313 79.7118 7.14515 79.895 7.57564L85.5379 20.8323C85.7212 21.2628 85.7212 21.7465 85.5379 22.1769L79.895 35.4336C79.7118 35.8641 79.3603 36.2061 78.9179 36.3844L69.3217 40.2523L78.9179 44.1202C79.3603 44.2985 79.7118 44.6405 79.895 45.071L85.5379 58.3277C85.7212 58.7582 85.7212 59.2418 85.5379 59.6723L79.895 72.929C79.7118 73.3595 79.3603 73.7015 78.9179 73.8798L65.2947 79.3709C64.8523 79.5492 64.3552 79.5492 63.9128 79.3709L50.2897 73.8798C49.8473 73.7015 49.4958 73.3595 49.3125 72.929L47.1432 67.8326V77.4987C47.1432 77.5406 47.1417 77.5821 47.1387 77.6232C47.1417 77.6643 47.1432 77.7058 47.1432 77.7477V96.4954C47.1432 96.7261 47.0965 96.9546 47.0057 97.1677L41.3628 110.424C41.1796 110.855 40.8281 111.197 40.3857 111.375L26.7625 116.866C26.3201 117.045 25.823 117.045 25.3807 116.866L11.7575 111.375C11.3151 111.197 10.9636 110.855 10.7803 110.424L5.13743 97.1677C4.95419 96.7372 4.95419 96.2536 5.13743 95.8231L10.7803 82.5664C10.9636 82.1359 11.3151 81.7939 11.7575 81.6156L21.6624 77.6232L11.7575 73.6308C11.3151 73.4525 10.9636 73.1105 10.7803 72.68L5.13743 59.4234C4.95419 58.9929 4.95419 58.5092 5.13743 58.0787L10.7803 44.8221C10.9636 44.3916 11.3151 44.0496 11.7575 43.8713L21.0448 40.1278L11.7575 36.3844C11.3151 36.2061 10.9636 35.8641 10.7803 35.4336L5.13743 22.1769C4.95419 21.7465 4.95419 21.2628 5.13743 20.8323L10.7803 7.57564C10.9636 7.14515 11.3151 6.80313 11.7575 6.62481L25.3807 1.13374ZM25.8469 41.9956L15.6357 46.1114L43.5322 73.2572V42.0092H26.0716C25.9963 42.0092 25.9213 42.0046 25.8469 41.9956ZM47.1432 42.0092V50.1674L49.3125 45.071C49.4958 44.6405 49.8473 44.2985 50.2897 44.1202L55.527 42.0092H47.1432ZM64.2446 38.4954H47.1432V6.99846L75.0396 34.1443L64.2446 38.4954ZM77.593 31.6596L81.9156 21.5046L76.8451 9.59266L64.2446 4.51382H49.6965L77.593 31.6596ZM43.5322 4.51382H26.4307L15.6357 8.86492L43.5322 36.0107V4.51382ZM40.723 38.2464H26.0716C25.9963 38.2464 25.9213 38.251 25.8469 38.2601L13.8303 33.4165L8.75973 21.5046L13.0824 11.3496L40.723 38.2464ZM64.6038 42.154L54.1679 46.3603L77.5929 69.155L81.9156 59L76.8451 47.0881L64.6038 42.154ZM75.0396 71.6397L51.6146 48.845L47.2919 59L52.3624 70.9119L64.6038 75.846L75.0396 71.6397ZM40.9788 75.7418L13.0824 48.596L8.75974 58.751L13.8303 70.663L26.4307 75.7418H40.9788ZM26.4307 79.5046H43.5322V96.1459L39.0608 106.65L15.6357 83.8557L26.4307 79.5046ZM13.0824 86.3404L8.75974 96.4954L13.8303 108.407L26.0716 113.341L36.5074 109.135L13.0824 86.3404Z" stroke="black" stroke-linecap="round" stroke-linejoin="round"/>
</g>
<defs>
<filter id="filter0_d_307_16" x="0.5" y="0.5" width="89.6753" height="125" filterUnits="userSpaceOnUse" color-interpolation-filters="sRGB">
<feFlood flood-opacity="0" result="BackgroundImageFix"/>
<feColorMatrix in="SourceAlpha" type="matrix" values="0 0 0 0 0 0 0 0 0 0 0 0 0 0 0 0 0 0 127 0" result="hardAlpha"/>
<feOffset dy="4"/>
<feGaussianBlur stdDeviation="2"/>
<feComposite in2="hardAlpha" operator="out"/>
<feColorMatrix type="matrix" values="0 0 0 0 0 0 0 0 0 0 0 0 0 0 0 0 0 0 0.25 0"/>
<feBlend mode="normal" in2="BackgroundImageFix" result="effect1_dropShadow_307_16"/>
<feBlend mode="normal" in="SourceGraphic" in2="effect1_dropShadow_307_16" result="shape"/>
</filter>
</defs>
</svg>
