<svg width="15" height="14" viewBox="0 0 15 14" fill="none" xmlns="http://www.w3.org/2000/svg">
<path d="M6.30664 1.09375C5.99414 1.40625 6.02539 1.875 6.30664 2.1875L10.0879 5.75H1.11914C0.681641 5.75 0.369141 6.09375 0.369141 6.5V7.5C0.369141 7.9375 0.681641 8.25 1.11914 8.25H10.0879L6.30664 11.8438C6.02539 12.1562 6.02539 12.625 6.30664 12.9375L6.99414 13.625C7.30664 13.9062 7.77539 13.9062 8.05664 13.625L14.1504 7.53125C14.4316 7.25 14.4316 6.78125 14.1504 6.46875L8.05664 0.40625C7.77539 0.125 7.30664 0.125 6.99414 0.40625L6.30664 1.09375Z" fill="#EBEBEB"/>
</svg>
