<svg width="22" height="29" viewBox="0 0 22 29" fill="none" xmlns="http://www.w3.org/2000/svg">
<path d="M14.7143 15.121C14.7143 17.0093 13.1741 18.5495 11.2857 18.5495C9.39732 18.5495 7.85714 17.0093 7.85714 15.121C7.85714 13.2326 9.39732 11.6924 11.2857 11.6924C13.1741 11.6924 14.7143 13.2326 14.7143 15.121ZM16.5625 15.121C16.5625 12.2013 14.2054 9.84417 11.2857 9.84417C8.36607 9.84417 6.00893 12.2013 6.00893 15.121C6.00893 18.0406 8.36607 20.3977 11.2857 20.3977C14.2054 20.3977 16.5625 18.0406 16.5625 15.121ZM18.0089 9.62988C18.0089 8.94685 17.4598 8.39774 16.7768 8.39774C16.0938 8.39774 15.5446 8.94685 15.5446 9.62988C15.5446 10.3129 16.0938 10.862 16.7768 10.862C17.4598 10.862 18.0089 10.3129 18.0089 9.62988ZM11.2857 6.68345C12.7857 6.68345 16 6.56292 17.3527 7.09863C17.8214 7.28613 18.1696 7.51381 18.5313 7.87542C18.8929 8.23703 19.1205 8.58524 19.308 9.05399C19.8438 10.4067 19.7232 13.621 19.7232 15.121C19.7232 16.621 19.8438 19.8352 19.308 21.1879C19.1205 21.6567 18.8929 22.0049 18.5313 22.3665C18.1696 22.7281 17.8214 22.9558 17.3527 23.1433C16 23.679 12.7857 23.5585 11.2857 23.5585C9.78571 23.5585 6.57143 23.679 5.21875 23.1433C4.75 22.9558 4.40179 22.7281 4.04018 22.3665C3.67857 22.0049 3.45089 21.6567 3.26339 21.1879C2.72768 19.8352 2.84821 16.621 2.84821 15.121C2.84821 13.621 2.72768 10.4067 3.26339 9.05399C3.45089 8.58524 3.67857 8.23703 4.04018 7.87542C4.40179 7.51381 4.75 7.28613 5.21875 7.09863C6.57143 6.56292 9.78571 6.68345 11.2857 6.68345ZM21.5714 15.121C21.5714 13.7013 21.5848 12.2951 21.5045 10.8754C21.4241 9.2281 21.0491 7.76828 19.8438 6.56292C18.6384 5.35756 17.1786 4.98256 15.5312 4.9022C14.1116 4.82185 12.7054 4.83524 11.2857 4.83524C9.86607 4.83524 8.45982 4.82185 7.04018 4.9022C5.39286 4.98256 3.93304 5.35756 2.72768 6.56292C1.52232 7.76828 1.14732 9.2281 1.06696 10.8754C0.986607 12.2951 1 13.7013 1 15.121C1 16.5406 0.986607 17.9468 1.06696 19.3665C1.14732 21.0138 1.52232 22.4736 2.72768 23.679C3.93304 24.8843 5.39286 25.2593 7.04018 25.3397C8.45982 25.4201 9.86607 25.4067 11.2857 25.4067C12.7054 25.4067 14.1116 25.4201 15.5312 25.3397C17.1786 25.2593 18.6384 24.8843 19.8438 23.679C21.0491 22.4736 21.4241 21.0138 21.5045 19.3665C21.5848 17.9468 21.5714 16.5406 21.5714 15.121Z" fill="#2B2B2B"/>
</svg>
