<svg width="21" height="29" viewBox="0 0 21 29" fill="none" xmlns="http://www.w3.org/2000/svg">
<path d="M3.17411 22.0585V12.7638H6.26786V22.0585H3.17411ZM6.46875 9.89774C6.46875 10.7817 5.79911 11.5049 4.71429 11.5049H4.70089C3.65625 11.5049 2.98661 10.7817 2.98661 9.89774C2.98661 8.98703 3.68304 8.2906 4.74107 8.2906C5.79911 8.2906 6.45536 8.98703 6.46875 9.89774ZM14.3036 22.0585V17.0897C14.3036 15.8308 13.8616 14.987 12.75 14.987C11.8929 14.987 11.3839 15.5629 11.1563 16.112C11.0759 16.3129 11.0625 16.5942 11.0625 16.862V22.0585H7.96875C8.00893 13.6343 7.96875 12.7638 7.96875 12.7638H11.0625V14.1165H11.0357C11.4375 13.4736 12.1741 12.5495 13.8348 12.5495C15.8705 12.5495 17.3973 13.8754 17.3973 16.7281V22.0585H14.3036ZM20.5714 8.69238C20.5714 6.56292 18.8438 4.83524 16.7143 4.83524H3.85714C1.72768 4.83524 0 6.56292 0 8.69238V21.5495C0 23.679 1.72768 25.4067 3.85714 25.4067H16.7143C18.8438 25.4067 20.5714 23.679 20.5714 21.5495V8.69238Z" fill="#2B2B2B"/>
</svg>
