<svg width="24" height="29" viewBox="0 0 24 29" fill="none" xmlns="http://www.w3.org/2000/svg">
<path d="M21.5156 9.81738C22.4531 9.11426 23.2969 8.27051 23.9531 7.28613C23.1094 7.66113 22.125 7.94238 21.1406 8.03613C22.1719 7.42676 22.9219 6.48926 23.2969 5.31738C22.3594 5.87988 21.2812 6.30176 20.2031 6.53613C19.2656 5.55176 18 4.98926 16.5938 4.98926C13.875 4.98926 11.6719 7.19238 11.6719 9.91113C11.6719 10.2861 11.7188 10.6611 11.8125 11.0361C7.73438 10.8018 4.07812 8.83301 1.64062 5.87988C1.21875 6.58301 0.984375 7.42676 0.984375 8.36426C0.984375 10.0518 1.82812 11.5518 3.1875 12.4424C2.39062 12.3955 1.59375 12.208 0.9375 11.833V11.8799C0.9375 14.2705 2.625 16.2393 4.875 16.708C4.5 16.8018 4.03125 16.8955 3.60938 16.8955C3.28125 16.8955 3 16.8486 2.67188 16.8018C3.28125 18.7705 5.10938 20.1768 7.26562 20.2236C5.57812 21.5361 3.46875 22.333 1.17188 22.333C0.75 22.333 0.375 22.2861 0 22.2393C2.15625 23.6455 4.73438 24.4424 7.54688 24.4424C16.5938 24.4424 21.5156 16.9893 21.5156 10.4736C21.5156 10.2393 21.5156 10.0518 21.5156 9.81738Z" fill="#2B2B2B"/>
</svg>
